<svg width="25" height="29" viewBox="0 0 25 29" fill="none" xmlns="http://www.w3.org/2000/svg">
<path fill-rule="evenodd" clip-rule="evenodd" d="M13.0535 2.30375C14.0785 1.05688 15.8285 0.101875 17.3285 0C17.5835 1.70563 16.886 3.36813 15.966 4.54125C15.011 5.77375 13.376 6.73563 11.7785 6.73563H11.6585C11.3585 5.11 12.1235 3.43375 13.0535 2.30375ZM14.712 7.23612C15.5684 6.91105 16.5097 6.55374 17.8834 6.55374L17.8771 6.55624C19.7815 6.55624 21.8015 7.59874 23.239 9.39874C18.5296 11.9869 19.2946 18.7375 24.0565 20.545C23.4065 22.0044 23.0915 22.6519 22.244 23.9419C21.0665 25.7356 19.4096 27.9731 17.3471 27.995H17.3096C16.4858 27.995 15.9384 27.7435 15.3488 27.4727C14.6609 27.1567 13.9157 26.8144 12.6071 26.8144H12.5696C11.2418 26.8218 10.4744 27.1653 9.76927 27.4809C9.16443 27.7516 8.60541 28.0019 7.77777 28.0019H7.74027C5.67777 27.98 4.10527 25.9606 2.92777 24.16C-0.364109 19.13 -0.709109 13.2256 1.32339 10.0906C2.77089 7.86749 5.05027 6.56249 7.18777 6.56249C8.33245 6.56249 9.25423 6.89049 10.1314 7.20263C10.9277 7.48597 11.6872 7.75624 12.5434 7.75624C13.3417 7.75624 13.9973 7.5074 14.712 7.23612Z" fill="#ADAFBB"/>
</svg>
