<svg width="32" height="32" viewBox="0 0 32 32" fill="none" xmlns="http://www.w3.org/2000/svg">
<path fill-rule="evenodd" clip-rule="evenodd" d="M17.0535 4.30375C18.0785 3.05688 19.8285 2.10188 21.3285 2C21.5835 3.70563 20.886 5.36813 19.966 6.54125C19.011 7.77375 17.376 8.73563 15.7785 8.73563H15.6585C15.3585 7.11 16.1235 5.43375 17.0535 4.30375ZM18.712 9.23612C19.5684 8.91105 20.5097 8.55374 21.8834 8.55374L21.8771 8.55624C23.7815 8.55624 25.8015 9.59874 27.239 11.3987C22.5296 13.9869 23.2946 20.7375 28.0565 22.545C27.4065 24.0044 27.0915 24.6519 26.244 25.9419C25.0665 27.7356 23.4096 29.9731 21.3471 29.995H21.3096C20.4858 29.995 19.9384 29.7435 19.3488 29.4727C18.6609 29.1567 17.9157 28.8144 16.6071 28.8144H16.5696C15.2418 28.8218 14.4744 29.1653 13.7693 29.4809C13.1644 29.7516 12.6054 30.0019 11.7778 30.0019H11.7403C9.67777 29.98 8.10527 27.9606 6.92777 26.16C3.63589 21.13 3.29089 15.2256 5.32339 12.0906C6.77089 9.86749 9.05027 8.56249 11.1878 8.56249C12.3324 8.56249 13.2542 8.89049 14.1314 9.20263C14.9277 9.48597 15.6872 9.75624 16.5434 9.75624C17.3417 9.75624 17.9973 9.5074 18.712 9.23612Z" fill="#ADAFBB"/>
</svg>
