<svg width="20" height="30" viewBox="0 0 20 30" fill="none" xmlns="http://www.w3.org/2000/svg">
<path d="M5.3569 15.0059C5.3569 13.7559 5.1499 12.5488 4.7358 11.3848C4.3295 10.2207 3.7436 9.1582 2.97798 8.19727C2.69673 7.8457 2.38814 7.62695 2.0522 7.54102C1.72408 7.44727 1.40767 7.45117 1.10298 7.55273C0.798299 7.6543 0.54439 7.82617 0.34126 8.06836C0.13814 8.31055 0.0248596 8.5957 0.00141962 8.92383C-0.0142004 9.2441 0.0990795 9.5723 0.34126 9.9082C1.02876 10.8223 1.50923 11.6699 1.78267 12.4512C2.06392 13.2324 2.20455 14.084 2.20455 15.0059C2.20455 15.9199 2.06392 16.7676 1.78267 17.5488C1.50923 18.3301 1.02876 19.1816 0.34126 20.1035C0.0990795 20.4395 -0.0103002 20.7676 0.0131398 21.0879C0.0365798 21.4082 0.14595 21.6895 0.34126 21.9316C0.54439 22.1738 0.798299 22.3457 1.10298 22.4473C1.40767 22.5488 1.72408 22.5566 2.0522 22.4707C2.38814 22.377 2.69673 22.1543 2.97798 21.8027C3.7436 20.8418 4.3295 19.7793 4.7358 18.6152C5.1499 17.4512 5.3569 16.248 5.3569 15.0059ZM12.2358 15.0059C12.2358 13.0449 11.935 11.166 11.3335 9.3691C10.7319 7.57227 9.8686 5.93555 8.7436 4.45898C8.4389 4.06055 8.1069 3.81055 7.7475 3.70898C7.396 3.59961 7.06 3.59961 6.7397 3.70898C6.4272 3.81836 6.1694 4.00195 5.9663 4.25977C5.7631 4.51758 5.6577 4.81836 5.6499 5.16211C5.6499 5.49805 5.7905 5.83789 6.0717 6.18164C7.0561 7.4082 7.8061 8.77148 8.3217 10.2715C8.8374 11.7715 9.0952 13.3496 9.0952 15.0059C9.0952 16.6621 8.8374 18.2402 8.3217 19.7402C7.8061 21.2324 7.0561 22.5918 6.0717 23.8184C5.7905 24.1621 5.6499 24.502 5.6499 24.8379C5.6577 25.1816 5.7631 25.4824 5.9663 25.7402C6.1694 25.998 6.4272 26.1816 6.7397 26.291C7.06 26.4004 7.396 26.4004 7.7475 26.291C8.1069 26.1895 8.4389 25.9434 8.7436 25.5527C9.8686 24.0684 10.7319 22.4277 11.3335 20.6309C11.935 18.834 12.2358 16.959 12.2358 15.0059ZM19.1264 15.0059C19.1264 12.373 18.7202 9.8496 17.9077 7.43555C17.103 5.02148 15.935 2.79883 14.4038 0.767581C14.1303 0.400391 13.8217 0.169921 13.478 0.0761707C13.1342 -0.0253903 12.8022 -0.0253903 12.4819 0.0761707C12.1616 0.177731 11.8999 0.353521 11.6967 0.603521C11.4936 0.845701 11.3842 1.13477 11.3686 1.4707C11.3608 1.80664 11.5014 2.15039 11.7905 2.50195C13.1733 4.29102 14.2163 6.24023 14.9194 8.34961C15.6225 10.4512 15.9741 12.6699 15.9741 15.0059C15.9741 17.334 15.6225 19.5488 14.9194 21.6504C14.2163 23.752 13.185 25.6855 11.8256 27.4512C11.5444 27.8027 11.4077 28.1465 11.4155 28.4824C11.4233 28.8184 11.5288 29.1113 11.7319 29.3613C11.935 29.6191 12.1928 29.7988 12.5053 29.9004C12.8256 30.0098 13.1577 30.0098 13.5014 29.9004C13.853 29.7988 14.1733 29.5605 14.4624 29.1855C15.9624 27.1855 17.1147 24.9785 17.9194 22.5645C18.7241 20.1504 19.1264 17.6309 19.1264 15.0059Z" fill="#F4B3B7"/>
</svg>
